<?xml version="1.0" encoding="UTF-8"?>
<svg xmlns="http://www.w3.org/2000/svg" width="1000" height="1001" viewBox="0 0 1000 1001" style="background:#f0ece0">
<text x="14" y="24" font-family="Helvetica, Arial, sans-serif" font-size="14" fill="#333" font-weight="bold">Sonsbeek Pavilion (Rietveld 1955) — Military oblique</text>
  <polygon points="444.8,943.4 941.5,446.8 555.2,60.5 58.5,557.1" fill="#c8c0a8" stroke="#a09880" stroke-width="0.3" stroke-linejoin="round"/>
  <polygon points="444.8,943.4 941.5,446.8 941.5,444.8 444.8,941.5" fill="#c8c0a8" stroke="#a09880" stroke-width="0.3" stroke-linejoin="round"/>
  <polygon points="444.8,941.5 941.5,444.8 555.2,58.5 58.5,555.2" fill="#ddd8c8" stroke="#a09880" stroke-width="0.3" stroke-linejoin="round"/>
  <polygon points="444.8,803.5 803.5,444.8 555.2,196.5 196.5,555.2" fill="#b0a898" stroke="#8a8070" stroke-width="0.6" stroke-linejoin="round"/>
  <polygon points="444.8,803.5 803.5,444.8 803.5,439.0 444.8,797.7" fill="#b0a898" stroke="#8a8070" stroke-width="0.6" stroke-linejoin="round"/>
  <polygon points="444.8,797.7 803.5,439.0 555.2,190.6 196.5,549.3" fill="#ccc5b8" stroke="#8a8070" stroke-width="0.6" stroke-linejoin="round"/>
  <polygon points="389.6,466.6 422.7,433.4 406.2,416.9 373.1,450.0" fill="#b0a898" stroke="#8a8070" stroke-width="0.6" stroke-linejoin="round"/>
  <polygon points="472.4,383.8 494.5,361.7 480.7,347.9 458.6,370.0" fill="#b0a898" stroke="#8a8070" stroke-width="0.6" stroke-linejoin="round"/>
  <polygon points="610.4,576.9 651.8,535.5 629.7,513.5 588.3,554.8" fill="#b0a898" stroke="#8a8070" stroke-width="0.6" stroke-linejoin="round"/>
  <polygon points="226.8,574.2 420.0,767.3 420.0,728.3 226.8,535.1" fill="#b0a898" stroke="#8a8070" stroke-width="0.6" stroke-linejoin="round"/>
  <polygon points="414.5,772.8 420.0,767.3 420.0,728.3 414.5,733.8" fill="#b0a898" stroke="#8a8070" stroke-width="0.6" stroke-linejoin="round"/>
  <polygon points="221.3,579.7 226.8,574.2 226.8,535.1 221.3,540.7" fill="#b0a898" stroke="#8a8070" stroke-width="0.6" stroke-linejoin="round"/>
  <polygon points="571.7,229.3 764.9,422.4 764.9,383.4 571.7,190.2" fill="#b0a898" stroke="#8a8070" stroke-width="0.6" stroke-linejoin="round"/>
  <polygon points="759.4,427.9 764.9,422.4 764.9,383.4 759.4,388.9" fill="#b0a898" stroke="#8a8070" stroke-width="0.6" stroke-linejoin="round"/>
  <polygon points="566.2,234.8 571.7,229.3 571.7,190.2 566.2,195.8" fill="#b0a898" stroke="#8a8070" stroke-width="0.6" stroke-linejoin="round"/>
  <polygon points="389.6,466.6 422.7,433.4 422.7,394.4 389.6,427.5" fill="#b0a898" stroke="#8a8070" stroke-width="0.6" stroke-linejoin="round"/>
  <polygon points="472.4,383.8 494.5,361.7 494.5,322.7 472.4,344.8" fill="#b0a898" stroke="#8a8070" stroke-width="0.6" stroke-linejoin="round"/>
  <polygon points="610.4,576.9 651.8,535.5 651.8,496.5 610.4,537.9" fill="#b0a898" stroke="#8a8070" stroke-width="0.6" stroke-linejoin="round"/>
  <polygon points="389.6,427.5 422.7,394.4 406.2,377.9 373.1,411.0" fill="#ccc5b8" stroke="#8a8070" stroke-width="0.6" stroke-linejoin="round"/>
  <polygon points="472.4,344.8 494.5,322.7 480.7,308.9 458.6,331.0" fill="#ccc5b8" stroke="#8a8070" stroke-width="0.6" stroke-linejoin="round"/>
  <polygon points="610.4,537.9 651.8,496.5 629.7,474.4 588.3,515.8" fill="#ccc5b8" stroke="#8a8070" stroke-width="0.6" stroke-linejoin="round"/>
  <polygon points="393.8,407.2 389.6,405.5 385.5,407.2 383.8,411.4 385.5,415.5 389.6,417.2 393.8,415.5 395.5,411.4" fill="#2a2a2a" stroke="#000000" stroke-width="0.3" stroke-linejoin="round"/>
  <polygon points="451.7,542.4 444.8,539.6 437.9,542.4 435.1,549.3 437.9,556.2 444.8,559.1 451.7,556.2 454.6,549.3" fill="#2a2a2a" stroke="#000000" stroke-width="0.3" stroke-linejoin="round"/>
  <polygon points="505.5,461.0 500.0,458.8 494.5,461.0 492.2,466.6 494.5,472.1 500.0,474.4 505.5,472.1 507.8,466.6" fill="#2a2a2a" stroke="#000000" stroke-width="0.3" stroke-linejoin="round"/>
  <polygon points="631.1,390.7 624.2,387.8 617.3,390.7 614.4,397.6 617.3,404.5 624.2,407.3 631.1,404.5 633.9,397.6" fill="#2a2a2a" stroke="#000000" stroke-width="0.3" stroke-linejoin="round"/>
  <polygon points="599.9,615.0 596.6,613.6 593.3,615.0 591.9,618.3 593.3,621.6 596.6,623.0 599.9,621.6 601.3,618.3" fill="#2a2a2a" stroke="#000000" stroke-width="0.3" stroke-linejoin="round"/>
  <polygon points="241.3,504.5 489.7,752.8 489.7,616.2 241.3,367.9" fill="#2a2a2a" stroke="#000000" stroke-width="0.6" stroke-linejoin="round"/>
  <polygon points="482.8,759.7 489.7,752.8 489.7,616.2 482.8,623.1" fill="#2a2a2a" stroke="#000000" stroke-width="0.6" stroke-linejoin="round"/>
  <polygon points="234.4,511.4 241.3,504.5 241.3,367.9 234.4,374.8" fill="#2a2a2a" stroke="#000000" stroke-width="0.6" stroke-linejoin="round"/>
  <polygon points="462.1,614.9 544.8,697.6 544.8,561.1 462.1,478.3" fill="#2a2a2a" stroke="#000000" stroke-width="0.6" stroke-linejoin="round"/>
  <polygon points="537.9,704.5 544.8,697.6 544.8,561.1 537.9,568.0" fill="#2a2a2a" stroke="#000000" stroke-width="0.6" stroke-linejoin="round"/>
  <polygon points="455.2,621.8 462.1,614.9 462.1,478.3 455.2,485.2" fill="#2a2a2a" stroke="#000000" stroke-width="0.6" stroke-linejoin="round"/>
  <polygon points="296.5,449.3 406.9,559.7 406.9,423.1 296.5,312.7" fill="#2a2a2a" stroke="#000000" stroke-width="0.6" stroke-linejoin="round"/>
  <polygon points="400.0,566.6 406.9,559.7 406.9,423.1 400.0,430.0" fill="#2a2a2a" stroke="#000000" stroke-width="0.6" stroke-linejoin="round"/>
  <polygon points="289.6,456.2 296.5,449.3 296.5,312.7 289.6,319.6" fill="#2a2a2a" stroke="#000000" stroke-width="0.6" stroke-linejoin="round"/>
  <polygon points="531.0,601.1 586.2,656.2 586.2,519.7 531.0,464.5" fill="#2a2a2a" stroke="#000000" stroke-width="0.6" stroke-linejoin="round"/>
  <polygon points="579.3,663.1 586.2,656.2 586.2,519.7 579.3,526.6" fill="#2a2a2a" stroke="#000000" stroke-width="0.6" stroke-linejoin="round"/>
  <polygon points="524.1,608.0 531.0,601.1 531.0,464.5 524.1,471.4" fill="#2a2a2a" stroke="#000000" stroke-width="0.6" stroke-linejoin="round"/>
  <polygon points="337.9,407.9 406.9,476.9 406.9,340.3 337.9,271.4" fill="#2a2a2a" stroke="#000000" stroke-width="0.6" stroke-linejoin="round"/>
  <polygon points="400.0,483.8 406.9,476.9 406.9,340.3 400.0,347.2" fill="#2a2a2a" stroke="#000000" stroke-width="0.6" stroke-linejoin="round"/>
  <polygon points="331.0,414.8 337.9,407.9 337.9,271.4 331.0,278.2" fill="#2a2a2a" stroke="#000000" stroke-width="0.6" stroke-linejoin="round"/>
  <polygon points="586.2,573.5 627.6,614.9 627.6,478.3 586.2,436.9" fill="#2a2a2a" stroke="#000000" stroke-width="0.6" stroke-linejoin="round"/>
  <polygon points="620.7,621.8 627.6,614.9 627.6,478.3 620.7,485.2" fill="#2a2a2a" stroke="#000000" stroke-width="0.6" stroke-linejoin="round"/>
  <polygon points="579.3,580.4 586.2,573.5 586.2,436.9 579.3,443.8" fill="#2a2a2a" stroke="#000000" stroke-width="0.6" stroke-linejoin="round"/>
  <polygon points="379.3,366.5 420.7,407.9 420.7,271.4 379.3,230.0" fill="#2a2a2a" stroke="#000000" stroke-width="0.6" stroke-linejoin="round"/>
  <polygon points="413.8,414.8 420.7,407.9 420.7,271.4 413.8,278.2" fill="#2a2a2a" stroke="#000000" stroke-width="0.6" stroke-linejoin="round"/>
  <polygon points="372.4,373.4 379.3,366.5 379.3,230.0 372.4,236.9" fill="#2a2a2a" stroke="#000000" stroke-width="0.6" stroke-linejoin="round"/>
  <polygon points="627.6,532.1 669.0,573.5 669.0,436.9 627.6,395.5" fill="#2a2a2a" stroke="#000000" stroke-width="0.6" stroke-linejoin="round"/>
  <polygon points="662.1,580.4 669.0,573.5 669.0,436.9 662.1,443.8" fill="#2a2a2a" stroke="#000000" stroke-width="0.6" stroke-linejoin="round"/>
  <polygon points="620.7,539.0 627.6,532.1 627.6,395.5 620.7,402.4" fill="#2a2a2a" stroke="#000000" stroke-width="0.6" stroke-linejoin="round"/>
  <polygon points="420.7,325.1 475.9,380.3 475.9,243.8 420.7,188.6" fill="#2a2a2a" stroke="#000000" stroke-width="0.6" stroke-linejoin="round"/>
  <polygon points="469.0,387.2 475.9,380.3 475.9,243.8 469.0,250.7" fill="#2a2a2a" stroke="#000000" stroke-width="0.6" stroke-linejoin="round"/>
  <polygon points="413.8,332.0 420.7,325.1 420.7,188.6 413.8,195.5" fill="#2a2a2a" stroke="#000000" stroke-width="0.6" stroke-linejoin="round"/>
  <polygon points="613.8,435.5 710.4,532.1 710.4,395.5 613.8,298.9" fill="#2a2a2a" stroke="#000000" stroke-width="0.6" stroke-linejoin="round"/>
  <polygon points="703.5,539.0 710.4,532.1 710.4,395.5 703.5,402.4" fill="#2a2a2a" stroke="#000000" stroke-width="0.6" stroke-linejoin="round"/>
  <polygon points="606.9,442.4 613.8,435.5 613.8,298.9 606.9,305.8" fill="#2a2a2a" stroke="#000000" stroke-width="0.6" stroke-linejoin="round"/>
  <polygon points="462.1,283.8 558.6,380.3 558.6,243.8 462.1,147.2" fill="#2a2a2a" stroke="#000000" stroke-width="0.6" stroke-linejoin="round"/>
  <polygon points="551.7,387.2 558.6,380.3 558.6,243.8 551.7,250.7" fill="#2a2a2a" stroke="#000000" stroke-width="0.6" stroke-linejoin="round"/>
  <polygon points="455.2,290.7 462.1,283.8 462.1,147.2 455.2,154.1" fill="#2a2a2a" stroke="#000000" stroke-width="0.6" stroke-linejoin="round"/>
  <polygon points="503.4,242.4 751.8,490.7 751.8,354.1 503.4,105.8" fill="#2a2a2a" stroke="#000000" stroke-width="0.6" stroke-linejoin="round"/>
  <polygon points="744.9,497.6 751.8,490.7 751.8,354.1 744.9,361.0" fill="#2a2a2a" stroke="#000000" stroke-width="0.6" stroke-linejoin="round"/>
  <polygon points="496.6,249.3 503.4,242.4 503.4,105.8 496.6,112.7" fill="#2a2a2a" stroke="#000000" stroke-width="0.6" stroke-linejoin="round"/>
  <polygon points="308.6,486.7 317.0,477.1 317.0,340.6 308.6,350.2" fill="#2a2a2a" stroke="#000000" stroke-width="0.6" stroke-linejoin="round"/>
  <polygon points="301.1,497.8 308.2,487.2 308.2,350.7 301.1,361.3" fill="#2a2a2a" stroke="#000000" stroke-width="0.6" stroke-linejoin="round"/>
  <polygon points="295.1,509.8 300.8,498.4 300.8,361.8 295.1,373.3" fill="#2a2a2a" stroke="#000000" stroke-width="0.6" stroke-linejoin="round"/>
  <polygon points="290.8,522.5 294.9,510.4 294.9,373.9 290.8,385.9" fill="#2a2a2a" stroke="#000000" stroke-width="0.6" stroke-linejoin="round"/>
  <polygon points="288.1,535.6 290.6,523.1 290.6,386.6 288.1,399.1" fill="#2a2a2a" stroke="#000000" stroke-width="0.6" stroke-linejoin="round"/>
  <polygon points="287.2,549.0 288.0,536.3 288.0,399.7 287.2,412.4" fill="#2a2a2a" stroke="#000000" stroke-width="0.6" stroke-linejoin="round"/>
  <polygon points="296.9,549.0 297.8,561.7 297.8,425.2 296.9,412.4" fill="#2a2a2a" stroke="#000000" stroke-width="0.6" stroke-linejoin="round"/>
  <polygon points="297.7,561.1 300.2,573.6 300.2,437.1 297.7,424.5" fill="#2a2a2a" stroke="#000000" stroke-width="0.6" stroke-linejoin="round"/>
  <polygon points="300.0,573.0 304.1,585.1 304.1,448.5 300.0,436.4" fill="#2a2a2a" stroke="#000000" stroke-width="0.6" stroke-linejoin="round"/>
  <polygon points="303.9,584.5 309.5,595.9 309.5,459.4 303.9,447.9" fill="#2a2a2a" stroke="#000000" stroke-width="0.6" stroke-linejoin="round"/>
  <polygon points="309.2,595.4 316.3,606.0 316.3,469.4 309.2,458.8" fill="#2a2a2a" stroke="#000000" stroke-width="0.6" stroke-linejoin="round"/>
  <polygon points="315.9,605.5 324.3,615.1 324.3,478.5 315.9,468.9" fill="#2a2a2a" stroke="#000000" stroke-width="0.6" stroke-linejoin="round"/>
  <polygon points="323.9,614.6 333.5,623.1 333.5,486.5 323.9,478.1" fill="#2a2a2a" stroke="#000000" stroke-width="0.6" stroke-linejoin="round"/>
  <polygon points="333.0,622.7 343.6,629.8 343.6,493.2 333.0,486.1" fill="#2a2a2a" stroke="#000000" stroke-width="0.6" stroke-linejoin="round"/>
  <polygon points="343.0,629.4 354.5,635.1 354.5,498.5 343.0,492.9" fill="#2a2a2a" stroke="#000000" stroke-width="0.6" stroke-linejoin="round"/>
  <polygon points="353.9,634.8 366.0,638.9 366.0,502.4 353.9,498.3" fill="#2a2a2a" stroke="#000000" stroke-width="0.6" stroke-linejoin="round"/>
  <polygon points="365.3,638.8 377.9,641.3 377.9,504.7 365.3,502.2" fill="#2a2a2a" stroke="#000000" stroke-width="0.6" stroke-linejoin="round"/>
  <polygon points="377.2,641.2 390.0,642.0 390.0,505.4 377.2,504.6" fill="#2a2a2a" stroke="#000000" stroke-width="0.6" stroke-linejoin="round"/>
  <polygon points="389.3,642.0 402.0,641.2 402.0,504.6 389.3,505.4" fill="#2a2a2a" stroke="#000000" stroke-width="0.6" stroke-linejoin="round"/>
  <polygon points="389.3,642.0 390.0,651.7 390.0,515.2 389.3,505.4" fill="#2a2a2a" stroke="#000000" stroke-width="0.6" stroke-linejoin="round"/>
  <polygon points="402.0,641.2 402.7,650.9 402.7,514.3 402.0,504.6" fill="#2a2a2a" stroke="#000000" stroke-width="0.6" stroke-linejoin="round"/>
  <polygon points="401.4,641.3 413.9,638.8 413.9,502.2 401.4,504.7" fill="#2a2a2a" stroke="#000000" stroke-width="0.6" stroke-linejoin="round"/>
  <polygon points="401.4,641.3 403.3,650.8 403.3,514.3 401.4,504.7" fill="#2a2a2a" stroke="#000000" stroke-width="0.6" stroke-linejoin="round"/>
  <polygon points="413.9,638.8 415.8,648.3 415.8,511.8 413.9,502.2" fill="#2a2a2a" stroke="#000000" stroke-width="0.6" stroke-linejoin="round"/>
  <polygon points="413.3,638.9 425.4,634.8 425.4,498.3 413.3,502.4" fill="#2a2a2a" stroke="#000000" stroke-width="0.6" stroke-linejoin="round"/>
  <polygon points="413.3,638.9 416.4,648.2 416.4,511.6 413.3,502.4" fill="#2a2a2a" stroke="#000000" stroke-width="0.6" stroke-linejoin="round"/>
  <polygon points="425.4,634.8 428.5,644.1 428.5,507.5 425.4,498.3" fill="#2a2a2a" stroke="#000000" stroke-width="0.6" stroke-linejoin="round"/>
  <polygon points="424.8,635.1 436.3,629.4 436.3,492.9 424.8,498.5" fill="#2a2a2a" stroke="#000000" stroke-width="0.6" stroke-linejoin="round"/>
  <polygon points="424.8,635.1 429.1,643.8 429.1,507.3 424.8,498.5" fill="#2a2a2a" stroke="#000000" stroke-width="0.6" stroke-linejoin="round"/>
  <polygon points="436.3,629.4 440.6,638.2 440.6,501.6 436.3,492.9" fill="#2a2a2a" stroke="#000000" stroke-width="0.6" stroke-linejoin="round"/>
  <polygon points="435.7,629.8 446.3,622.7 446.3,486.1 435.7,493.2" fill="#2a2a2a" stroke="#000000" stroke-width="0.6" stroke-linejoin="round"/>
  <polygon points="435.7,629.8 441.1,637.9 441.1,501.3 435.7,493.2" fill="#2a2a2a" stroke="#000000" stroke-width="0.6" stroke-linejoin="round"/>
  <polygon points="446.3,622.7 451.7,630.8 451.7,494.2 446.3,486.1" fill="#2a2a2a" stroke="#000000" stroke-width="0.6" stroke-linejoin="round"/>
  <polygon points="445.8,623.1 455.4,614.6 455.4,478.1 445.8,486.5" fill="#2a2a2a" stroke="#000000" stroke-width="0.6" stroke-linejoin="round"/>
  <polygon points="445.8,623.1 452.2,630.4 452.2,493.8 445.8,486.5" fill="#2a2a2a" stroke="#000000" stroke-width="0.6" stroke-linejoin="round"/>
  <polygon points="455.4,614.6 461.8,622.0 461.8,485.4 455.4,478.1" fill="#2a2a2a" stroke="#000000" stroke-width="0.6" stroke-linejoin="round"/>
  <polygon points="398.8,572.8 405.3,565.4 405.3,428.9 398.8,436.3" fill="#2a2a2a" stroke="#000000" stroke-width="0.6" stroke-linejoin="round"/>
  <polygon points="393.1,581.6 398.4,573.4 398.4,436.8 393.1,445.0" fill="#2a2a2a" stroke="#000000" stroke-width="0.6" stroke-linejoin="round"/>
  <polygon points="388.6,591.1 392.8,582.2 392.8,445.6 388.6,454.5" fill="#2a2a2a" stroke="#000000" stroke-width="0.6" stroke-linejoin="round"/>
  <polygon points="385.5,601.1 388.4,591.7 388.4,455.1 385.5,464.5" fill="#2a2a2a" stroke="#000000" stroke-width="0.6" stroke-linejoin="round"/>
  <polygon points="383.8,611.4 385.4,601.7 385.4,465.2 383.8,474.9" fill="#2a2a2a" stroke="#000000" stroke-width="0.6" stroke-linejoin="round"/>
  <polygon points="383.6,621.9 383.8,612.1 383.8,475.5 383.6,485.3" fill="#2a2a2a" stroke="#000000" stroke-width="0.6" stroke-linejoin="round"/>
  <polygon points="393.3,621.4 394.5,631.1 394.5,494.5 393.3,484.8" fill="#2a2a2a" stroke="#000000" stroke-width="0.6" stroke-linejoin="round"/>
  <polygon points="394.4,630.4 396.9,639.9 396.9,503.3 394.4,493.9" fill="#2a2a2a" stroke="#000000" stroke-width="0.6" stroke-linejoin="round"/>
  <polygon points="396.7,639.3 400.5,648.3 400.5,511.7 396.7,502.7" fill="#2a2a2a" stroke="#000000" stroke-width="0.6" stroke-linejoin="round"/>
  <polygon points="400.2,647.7 405.3,656.1 405.3,519.5 400.2,511.1" fill="#2a2a2a" stroke="#000000" stroke-width="0.6" stroke-linejoin="round"/>
  <polygon points="404.9,655.5 411.0,663.1 411.0,526.6 404.9,519.0" fill="#2a2a2a" stroke="#000000" stroke-width="0.6" stroke-linejoin="round"/>
  <polygon points="410.6,662.6 417.7,669.3 417.7,532.8 410.6,526.1" fill="#2a2a2a" stroke="#000000" stroke-width="0.6" stroke-linejoin="round"/>
  <polygon points="417.2,668.9 425.2,674.5 425.2,537.9 417.2,532.3" fill="#2a2a2a" stroke="#000000" stroke-width="0.6" stroke-linejoin="round"/>
  <polygon points="424.7,674.2 433.4,678.6 433.4,542.0 424.7,537.6" fill="#2a2a2a" stroke="#000000" stroke-width="0.6" stroke-linejoin="round"/>
  <polygon points="432.8,678.4 442.0,681.5 442.0,545.0 432.8,541.8" fill="#2a2a2a" stroke="#000000" stroke-width="0.6" stroke-linejoin="round"/>
  <polygon points="441.4,681.4 451.0,683.2 451.0,546.7 441.4,544.8" fill="#2a2a2a" stroke="#000000" stroke-width="0.6" stroke-linejoin="round"/>
  <polygon points="450.3,683.2 460.1,683.7 460.1,547.1 450.3,546.6" fill="#2a2a2a" stroke="#000000" stroke-width="0.6" stroke-linejoin="round"/>
  <polygon points="459.4,683.7 469.2,682.8 469.2,546.3 459.4,547.1" fill="#2a2a2a" stroke="#000000" stroke-width="0.6" stroke-linejoin="round"/>
  <polygon points="459.4,683.7 460.3,693.4 460.3,556.8 459.4,547.1" fill="#2a2a2a" stroke="#000000" stroke-width="0.6" stroke-linejoin="round"/>
  <polygon points="469.2,682.8 470.0,692.5 470.0,556.0 469.2,546.3" fill="#2a2a2a" stroke="#000000" stroke-width="0.6" stroke-linejoin="round"/>
  <polygon points="468.5,682.9 478.1,680.7 478.1,544.2 468.5,546.4" fill="#2a2a2a" stroke="#000000" stroke-width="0.6" stroke-linejoin="round"/>
  <polygon points="468.5,682.9 470.7,692.4 470.7,555.9 468.5,546.4" fill="#2a2a2a" stroke="#000000" stroke-width="0.6" stroke-linejoin="round"/>
  <polygon points="478.1,680.7 480.2,690.2 480.2,553.7 478.1,544.2" fill="#2a2a2a" stroke="#000000" stroke-width="0.6" stroke-linejoin="round"/>
  <polygon points="477.4,680.9 486.5,677.4 486.5,540.8 477.4,544.4" fill="#2a2a2a" stroke="#000000" stroke-width="0.6" stroke-linejoin="round"/>
  <polygon points="477.4,680.9 480.9,690.0 480.9,553.5 477.4,544.4" fill="#2a2a2a" stroke="#000000" stroke-width="0.6" stroke-linejoin="round"/>
  <polygon points="486.5,677.4 490.0,686.5 490.0,549.9 486.5,540.8" fill="#2a2a2a" stroke="#000000" stroke-width="0.6" stroke-linejoin="round"/>
  <polygon points="598.4,455.1 605.8,446.6 605.8,310.0 598.4,318.5" fill="#2a2a2a" stroke="#000000" stroke-width="0.6" stroke-linejoin="round"/>
  <polygon points="598.4,455.1 605.8,461.5 605.8,324.9 598.4,318.5" fill="#2a2a2a" stroke="#000000" stroke-width="0.6" stroke-linejoin="round"/>
  <polygon points="605.8,446.6 613.2,453.1 613.2,316.5 605.8,310.0" fill="#2a2a2a" stroke="#000000" stroke-width="0.6" stroke-linejoin="round"/>
  <polygon points="605.4,447.1 611.7,437.8 611.7,301.2 605.4,310.6" fill="#2a2a2a" stroke="#000000" stroke-width="0.6" stroke-linejoin="round"/>
  <polygon points="605.4,447.1 613.5,452.5 613.5,316.0 605.4,310.6" fill="#2a2a2a" stroke="#000000" stroke-width="0.6" stroke-linejoin="round"/>
  <polygon points="611.7,437.8 619.8,443.2 619.8,306.6 611.7,301.2" fill="#2a2a2a" stroke="#000000" stroke-width="0.6" stroke-linejoin="round"/>
  <polygon points="611.4,438.3 616.3,428.3 616.3,291.7 611.4,301.8" fill="#2a2a2a" stroke="#000000" stroke-width="0.6" stroke-linejoin="round"/>
  <polygon points="611.4,438.3 620.1,442.7 620.1,306.1 611.4,301.8" fill="#2a2a2a" stroke="#000000" stroke-width="0.6" stroke-linejoin="round"/>
  <polygon points="616.3,428.3 625.1,432.6 625.1,296.0 616.3,291.7" fill="#2a2a2a" stroke="#000000" stroke-width="0.6" stroke-linejoin="round"/>
  <polygon points="616.1,428.9 619.7,418.2 619.7,281.7 616.1,292.3" fill="#2a2a2a" stroke="#000000" stroke-width="0.6" stroke-linejoin="round"/>
  <polygon points="616.1,428.9 625.3,432.0 625.3,295.4 616.1,292.3" fill="#2a2a2a" stroke="#000000" stroke-width="0.6" stroke-linejoin="round"/>
  <polygon points="619.7,418.2 628.9,421.4 628.9,284.8 619.7,281.7" fill="#2a2a2a" stroke="#000000" stroke-width="0.6" stroke-linejoin="round"/>
  <polygon points="619.5,418.8 621.7,407.8 621.7,271.3 619.5,282.3" fill="#2a2a2a" stroke="#000000" stroke-width="0.6" stroke-linejoin="round"/>
  <polygon points="619.5,418.8 629.1,420.7 629.1,284.2 619.5,282.3" fill="#2a2a2a" stroke="#000000" stroke-width="0.6" stroke-linejoin="round"/>
  <polygon points="621.7,407.8 631.3,409.7 631.3,273.2 621.7,271.3" fill="#2a2a2a" stroke="#000000" stroke-width="0.6" stroke-linejoin="round"/>
  <polygon points="621.6,408.5 622.4,397.3 622.4,260.7 621.6,271.9" fill="#2a2a2a" stroke="#000000" stroke-width="0.6" stroke-linejoin="round"/>
  <polygon points="621.6,408.5 631.4,409.1 631.4,272.5 621.6,271.9" fill="#2a2a2a" stroke="#000000" stroke-width="0.6" stroke-linejoin="round"/>
  <polygon points="622.4,397.3 632.1,397.9 632.1,261.3 622.4,260.7" fill="#2a2a2a" stroke="#000000" stroke-width="0.6" stroke-linejoin="round"/>
  <polygon points="631.4,386.1 632.1,397.3 632.1,260.7 631.4,249.5" fill="#2a2a2a" stroke="#000000" stroke-width="0.6" stroke-linejoin="round"/>
  <polygon points="622.4,397.9 632.1,397.3 632.1,260.7 622.4,261.3" fill="#2a2a2a" stroke="#000000" stroke-width="0.6" stroke-linejoin="round"/>
  <polygon points="621.6,386.7 631.4,386.1 631.4,249.5 621.6,250.1" fill="#2a2a2a" stroke="#000000" stroke-width="0.6" stroke-linejoin="round"/>
  <polygon points="629.1,374.4 631.3,385.4 631.3,248.8 629.1,237.8" fill="#2a2a2a" stroke="#000000" stroke-width="0.6" stroke-linejoin="round"/>
  <polygon points="621.7,387.3 631.3,385.4 631.3,248.8 621.7,250.7" fill="#2a2a2a" stroke="#000000" stroke-width="0.6" stroke-linejoin="round"/>
  <polygon points="619.5,376.3 629.1,374.4 629.1,237.8 619.5,239.7" fill="#2a2a2a" stroke="#000000" stroke-width="0.6" stroke-linejoin="round"/>
  <polygon points="625.3,363.2 628.9,373.8 628.9,237.2 625.3,226.6" fill="#2a2a2a" stroke="#000000" stroke-width="0.6" stroke-linejoin="round"/>
  <polygon points="619.7,376.9 628.9,373.8 628.9,237.2 619.7,240.4" fill="#2a2a2a" stroke="#000000" stroke-width="0.6" stroke-linejoin="round"/>
  <polygon points="616.1,366.3 625.3,363.2 625.3,226.6 616.1,229.7" fill="#2a2a2a" stroke="#000000" stroke-width="0.6" stroke-linejoin="round"/>
  <polygon points="620.1,352.5 625.1,362.6 625.1,226.0 620.1,215.9" fill="#2a2a2a" stroke="#000000" stroke-width="0.6" stroke-linejoin="round"/>
  <polygon points="616.3,366.9 625.1,362.6 625.1,226.0 616.3,230.3" fill="#2a2a2a" stroke="#000000" stroke-width="0.6" stroke-linejoin="round"/>
  <polygon points="611.4,356.8 620.1,352.5 620.1,215.9 611.4,220.2" fill="#2a2a2a" stroke="#000000" stroke-width="0.6" stroke-linejoin="round"/>
  <polygon points="613.5,342.6 619.8,351.9 619.8,215.4 613.5,206.0" fill="#2a2a2a" stroke="#000000" stroke-width="0.6" stroke-linejoin="round"/>
  <polygon points="611.7,357.4 619.8,351.9 619.8,215.4 611.7,220.8" fill="#2a2a2a" stroke="#000000" stroke-width="0.6" stroke-linejoin="round"/>
  <polygon points="605.4,348.0 613.5,342.6 613.5,206.0 605.4,211.5" fill="#2a2a2a" stroke="#000000" stroke-width="0.6" stroke-linejoin="round"/>
  <polygon points="605.8,333.7 613.2,342.1 613.2,205.5 605.8,197.1" fill="#2a2a2a" stroke="#000000" stroke-width="0.6" stroke-linejoin="round"/>
  <polygon points="605.8,348.5 613.2,342.1 613.2,205.5 605.8,212.0" fill="#2a2a2a" stroke="#000000" stroke-width="0.6" stroke-linejoin="round"/>
  <polygon points="598.4,340.1 605.8,333.7 605.8,197.1 598.4,203.5" fill="#2a2a2a" stroke="#000000" stroke-width="0.6" stroke-linejoin="round"/>
  <polygon points="596.9,325.8 605.3,333.2 605.3,196.6 596.9,189.2" fill="#2a2a2a" stroke="#000000" stroke-width="0.6" stroke-linejoin="round"/>
  <polygon points="598.9,340.5 605.3,333.2 605.3,196.6 598.9,204.0" fill="#2a2a2a" stroke="#000000" stroke-width="0.6" stroke-linejoin="round"/>
  <polygon points="590.4,333.1 596.9,325.8 596.9,189.2 590.4,196.6" fill="#2a2a2a" stroke="#000000" stroke-width="0.6" stroke-linejoin="round"/>
  <polygon points="587.0,319.2 596.4,325.4 596.4,188.8 587.0,182.6" fill="#2a2a2a" stroke="#000000" stroke-width="0.6" stroke-linejoin="round"/>
  <polygon points="590.9,333.5 596.4,325.4 596.4,188.8 590.9,197.0" fill="#2a2a2a" stroke="#000000" stroke-width="0.6" stroke-linejoin="round"/>
  <polygon points="581.6,327.3 587.0,319.2 587.0,182.6 581.6,190.7" fill="#2a2a2a" stroke="#000000" stroke-width="0.6" stroke-linejoin="round"/>
  <polygon points="576.4,313.9 586.5,318.9 586.5,182.3 576.4,177.3" fill="#2a2a2a" stroke="#000000" stroke-width="0.6" stroke-linejoin="round"/>
  <polygon points="582.2,327.6 586.5,318.9 586.5,182.3 582.2,191.0" fill="#2a2a2a" stroke="#000000" stroke-width="0.6" stroke-linejoin="round"/>
  <polygon points="572.1,322.6 576.4,313.9 576.4,177.3 572.1,186.1" fill="#2a2a2a" stroke="#000000" stroke-width="0.6" stroke-linejoin="round"/>
  <polygon points="565.2,310.0 575.8,313.6 575.8,177.1 565.2,173.5" fill="#2a2a2a" stroke="#000000" stroke-width="0.6" stroke-linejoin="round"/>
  <polygon points="572.7,322.9 575.8,313.6 575.8,177.1 572.7,186.3" fill="#2a2a2a" stroke="#000000" stroke-width="0.6" stroke-linejoin="round"/>
  <polygon points="562.0,319.3 565.2,310.0 565.2,173.5 562.0,182.7" fill="#2a2a2a" stroke="#000000" stroke-width="0.6" stroke-linejoin="round"/>
  <polygon points="553.5,307.7 564.6,309.9 564.6,173.3 553.5,171.1" fill="#2a2a2a" stroke="#000000" stroke-width="0.6" stroke-linejoin="round"/>
  <polygon points="562.7,319.4 564.6,309.9 564.6,173.3 562.7,182.9" fill="#2a2a2a" stroke="#000000" stroke-width="0.6" stroke-linejoin="round"/>
  <polygon points="551.6,317.2 553.5,307.7 553.5,171.1 551.6,180.7" fill="#2a2a2a" stroke="#000000" stroke-width="0.6" stroke-linejoin="round"/>
  <polygon points="541.7,306.9 552.9,307.6 552.9,171.0 541.7,170.3" fill="#2a2a2a" stroke="#000000" stroke-width="0.6" stroke-linejoin="round"/>
  <polygon points="552.3,317.3 552.9,307.6 552.9,171.0 552.3,180.8" fill="#2a2a2a" stroke="#000000" stroke-width="0.6" stroke-linejoin="round"/>
  <polygon points="541.1,316.6 541.7,306.9 541.7,170.3 541.1,180.0" fill="#2a2a2a" stroke="#000000" stroke-width="0.6" stroke-linejoin="round"/>
  <polygon points="529.9,307.6 541.1,306.9 541.1,170.3 529.9,171.0" fill="#2a2a2a" stroke="#000000" stroke-width="0.6" stroke-linejoin="round"/>
  <polygon points="518.2,309.9 529.2,307.7 529.2,171.1 518.2,173.3" fill="#2a2a2a" stroke="#000000" stroke-width="0.6" stroke-linejoin="round"/>
  <polygon points="507.0,313.6 517.6,310.0 517.6,173.5 507.0,177.1" fill="#2a2a2a" stroke="#000000" stroke-width="0.6" stroke-linejoin="round"/>
  <polygon points="496.3,318.9 506.4,313.9 506.4,177.3 496.3,182.3" fill="#2a2a2a" stroke="#000000" stroke-width="0.6" stroke-linejoin="round"/>
  <polygon points="486.4,325.4 495.8,319.2 495.8,182.6 486.4,188.8" fill="#2a2a2a" stroke="#000000" stroke-width="0.6" stroke-linejoin="round"/>
  <polygon points="477.5,333.2 485.9,325.8 485.9,189.2 477.5,196.6" fill="#2a2a2a" stroke="#000000" stroke-width="0.6" stroke-linejoin="round"/>
  <polygon points="658.9,489.5 661.8,481.9 661.8,345.3 658.9,353.0" fill="#2a2a2a" stroke="#000000" stroke-width="0.6" stroke-linejoin="round"/>
  <polygon points="658.9,489.5 668.0,493.0 668.0,356.5 658.9,353.0" fill="#2a2a2a" stroke="#000000" stroke-width="0.6" stroke-linejoin="round"/>
  <polygon points="661.8,481.9 670.9,485.4 670.9,348.8 661.8,345.3" fill="#2a2a2a" stroke="#000000" stroke-width="0.6" stroke-linejoin="round"/>
  <polygon points="661.6,482.6 663.4,474.6 663.4,338.0 661.6,346.0" fill="#2a2a2a" stroke="#000000" stroke-width="0.6" stroke-linejoin="round"/>
  <polygon points="661.6,482.6 671.1,484.8 671.1,348.2 661.6,346.0" fill="#2a2a2a" stroke="#000000" stroke-width="0.6" stroke-linejoin="round"/>
  <polygon points="663.4,474.6 672.9,476.8 672.9,340.2 663.4,338.0" fill="#2a2a2a" stroke="#000000" stroke-width="0.6" stroke-linejoin="round"/>
  <polygon points="663.3,475.3 664.0,467.2 664.0,330.6 663.3,338.7" fill="#2a2a2a" stroke="#000000" stroke-width="0.6" stroke-linejoin="round"/>
  <polygon points="663.3,475.3 673.0,476.1 673.0,339.6 663.3,338.7" fill="#2a2a2a" stroke="#000000" stroke-width="0.6" stroke-linejoin="round"/>
  <polygon points="664.0,467.2 673.7,468.0 673.7,331.4 664.0,330.6" fill="#2a2a2a" stroke="#000000" stroke-width="0.6" stroke-linejoin="round"/>
  <polygon points="673.3,459.2 673.8,467.3 673.8,330.7 673.3,322.6" fill="#2a2a2a" stroke="#000000" stroke-width="0.6" stroke-linejoin="round"/>
  <polygon points="664.0,467.8 673.8,467.3 673.8,330.7 664.0,331.3" fill="#2a2a2a" stroke="#000000" stroke-width="0.6" stroke-linejoin="round"/>
  <polygon points="663.6,459.7 673.3,459.2 673.3,322.6 663.6,323.1" fill="#2a2a2a" stroke="#000000" stroke-width="0.6" stroke-linejoin="round"/>
  <polygon points="671.7,450.5 673.2,458.5 673.2,321.9 671.7,313.9" fill="#2a2a2a" stroke="#000000" stroke-width="0.6" stroke-linejoin="round"/>
  <polygon points="663.7,460.4 673.2,458.5 673.2,321.9 663.7,323.8" fill="#2a2a2a" stroke="#000000" stroke-width="0.6" stroke-linejoin="round"/>
  <polygon points="662.1,452.3 671.7,450.5 671.7,313.9 662.1,315.8" fill="#2a2a2a" stroke="#000000" stroke-width="0.6" stroke-linejoin="round"/>
  <polygon points="668.9,442.1 671.5,449.8 671.5,313.2 668.9,305.5" fill="#2a2a2a" stroke="#000000" stroke-width="0.6" stroke-linejoin="round"/>
  <polygon points="662.3,453.0 671.5,449.8 671.5,313.2 662.3,316.4" fill="#2a2a2a" stroke="#000000" stroke-width="0.6" stroke-linejoin="round"/>
  <polygon points="659.6,445.3 668.9,442.1 668.9,305.5 659.6,308.7" fill="#2a2a2a" stroke="#000000" stroke-width="0.6" stroke-linejoin="round"/>
  <polygon points="664.9,434.2 668.6,441.5 668.6,304.9 664.9,297.6" fill="#2a2a2a" stroke="#000000" stroke-width="0.6" stroke-linejoin="round"/>
  <polygon points="659.9,445.9 668.6,441.5 668.6,304.9 659.9,309.3" fill="#2a2a2a" stroke="#000000" stroke-width="0.6" stroke-linejoin="round"/>
  <polygon points="656.2,438.6 664.9,434.2 664.9,297.6 656.2,302.1" fill="#2a2a2a" stroke="#000000" stroke-width="0.6" stroke-linejoin="round"/>
  <polygon points="659.8,426.9 664.5,433.6 664.5,297.0 659.8,290.4" fill="#2a2a2a" stroke="#000000" stroke-width="0.6" stroke-linejoin="round"/>
  <polygon points="656.5,439.2 664.5,433.6 664.5,297.0 656.5,302.6" fill="#2a2a2a" stroke="#000000" stroke-width="0.6" stroke-linejoin="round"/>
  <polygon points="651.9,432.5 659.8,426.9 659.8,290.4 651.9,295.9" fill="#2a2a2a" stroke="#000000" stroke-width="0.6" stroke-linejoin="round"/>
  <polygon points="653.9,420.4 659.4,426.4 659.4,289.8 653.9,283.8" fill="#2a2a2a" stroke="#000000" stroke-width="0.6" stroke-linejoin="round"/>
  <polygon points="652.3,433.0 659.4,426.4 659.4,289.8 652.3,296.5" fill="#2a2a2a" stroke="#000000" stroke-width="0.6" stroke-linejoin="round"/>
  <polygon points="646.7,427.1 653.9,420.4 653.9,283.8 646.7,290.5" fill="#2a2a2a" stroke="#000000" stroke-width="0.6" stroke-linejoin="round"/>
  <polygon points="647.0,414.8 653.4,420.0 653.4,283.4 647.0,278.2" fill="#2a2a2a" stroke="#000000" stroke-width="0.6" stroke-linejoin="round"/>
  <polygon points="647.2,427.5 653.4,420.0 653.4,283.4 647.2,291.0" fill="#2a2a2a" stroke="#000000" stroke-width="0.6" stroke-linejoin="round"/>
  <polygon points="640.9,422.4 647.0,414.8 647.0,278.2 640.9,285.8" fill="#2a2a2a" stroke="#000000" stroke-width="0.6" stroke-linejoin="round"/>
  <polygon points="639.5,410.2 646.5,414.4 646.5,277.9 639.5,273.7" fill="#2a2a2a" stroke="#000000" stroke-width="0.6" stroke-linejoin="round"/>
  <polygon points="641.4,422.8 646.5,414.4 646.5,277.9 641.4,286.2" fill="#2a2a2a" stroke="#000000" stroke-width="0.6" stroke-linejoin="round"/>
  <polygon points="634.4,418.6 639.5,410.2 639.5,273.7 634.4,282.0" fill="#2a2a2a" stroke="#000000" stroke-width="0.6" stroke-linejoin="round"/>
  <polygon points="631.3,406.7 638.8,409.9 638.8,273.3 631.3,270.2" fill="#2a2a2a" stroke="#000000" stroke-width="0.6" stroke-linejoin="round"/>
  <polygon points="635.0,418.9 638.8,409.9 638.8,273.3 635.0,282.3" fill="#2a2a2a" stroke="#000000" stroke-width="0.6" stroke-linejoin="round"/>
  <polygon points="627.5,415.7 631.3,406.7 631.3,270.2 627.5,279.1" fill="#2a2a2a" stroke="#000000" stroke-width="0.6" stroke-linejoin="round"/>
  <polygon points="622.8,404.4 630.7,406.5 630.7,269.9 622.8,267.8" fill="#2a2a2a" stroke="#000000" stroke-width="0.6" stroke-linejoin="round"/>
  <polygon points="628.2,415.9 630.7,406.5 630.7,269.9 628.2,279.4" fill="#2a2a2a" stroke="#000000" stroke-width="0.6" stroke-linejoin="round"/>
  <polygon points="620.3,413.8 622.8,404.4 622.8,267.8 620.3,277.2" fill="#2a2a2a" stroke="#000000" stroke-width="0.6" stroke-linejoin="round"/>
  <polygon points="614.0,403.3 622.1,404.3 622.1,267.7 614.0,266.7" fill="#2a2a2a" stroke="#000000" stroke-width="0.6" stroke-linejoin="round"/>
  <polygon points="620.9,413.9 622.1,404.3 622.1,267.7 620.9,277.4" fill="#2a2a2a" stroke="#000000" stroke-width="0.6" stroke-linejoin="round"/>
  <polygon points="612.8,412.9 614.0,403.3 614.0,266.7 612.8,276.4" fill="#2a2a2a" stroke="#000000" stroke-width="0.6" stroke-linejoin="round"/>
  <polygon points="605.2,403.4 613.3,403.2 613.3,266.7 605.2,266.8" fill="#2a2a2a" stroke="#000000" stroke-width="0.6" stroke-linejoin="round"/>
  <polygon points="596.4,404.7 604.5,403.4 604.5,266.9 596.4,268.1" fill="#2a2a2a" stroke="#000000" stroke-width="0.6" stroke-linejoin="round"/>
  <polygon points="588.0,407.2 595.8,404.9 595.8,268.3 588.0,270.7" fill="#2a2a2a" stroke="#000000" stroke-width="0.6" stroke-linejoin="round"/>
  <polygon points="579.9,410.9 587.3,407.5 587.3,270.9 579.9,274.4" fill="#2a2a2a" stroke="#000000" stroke-width="0.6" stroke-linejoin="round"/>
  <polygon points="572.5,415.7 579.3,411.3 579.3,274.7 572.5,279.1" fill="#2a2a2a" stroke="#000000" stroke-width="0.6" stroke-linejoin="round"/>
  <polygon points="565.8,421.5 571.9,416.1 571.9,279.6 565.8,284.9" fill="#2a2a2a" stroke="#000000" stroke-width="0.6" stroke-linejoin="round"/>
  <polygon points="383.8,411.4 385.5,415.5 385.5,278.9 383.8,274.8" fill="#2a2a2a" stroke="#000000" stroke-width="0.3" stroke-linejoin="round"/>
  <polygon points="385.5,415.5 389.6,417.2 389.6,280.7 385.5,278.9" fill="#2a2a2a" stroke="#000000" stroke-width="0.3" stroke-linejoin="round"/>
  <polygon points="389.6,417.2 393.8,415.5 393.8,278.9 389.6,280.7" fill="#2a2a2a" stroke="#000000" stroke-width="0.3" stroke-linejoin="round"/>
  <polygon points="393.8,415.5 395.5,411.4 395.5,274.8 393.8,278.9" fill="#2a2a2a" stroke="#000000" stroke-width="0.3" stroke-linejoin="round"/>
  <polygon points="435.1,549.3 437.9,556.2 437.9,419.7 435.1,412.8" fill="#2a2a2a" stroke="#000000" stroke-width="0.3" stroke-linejoin="round"/>
  <polygon points="437.9,556.2 444.8,559.1 444.8,422.5 437.9,419.7" fill="#2a2a2a" stroke="#000000" stroke-width="0.3" stroke-linejoin="round"/>
  <polygon points="444.8,559.1 451.7,556.2 451.7,419.7 444.8,422.5" fill="#2a2a2a" stroke="#000000" stroke-width="0.3" stroke-linejoin="round"/>
  <polygon points="451.7,556.2 454.6,549.3 454.6,412.8 451.7,419.7" fill="#2a2a2a" stroke="#000000" stroke-width="0.3" stroke-linejoin="round"/>
  <polygon points="492.2,466.6 494.5,472.1 494.5,335.5 492.2,330.0" fill="#2a2a2a" stroke="#000000" stroke-width="0.3" stroke-linejoin="round"/>
  <polygon points="494.5,472.1 500.0,474.4 500.0,337.8 494.5,335.5" fill="#2a2a2a" stroke="#000000" stroke-width="0.3" stroke-linejoin="round"/>
  <polygon points="500.0,474.4 505.5,472.1 505.5,335.5 500.0,337.8" fill="#2a2a2a" stroke="#000000" stroke-width="0.3" stroke-linejoin="round"/>
  <polygon points="505.5,472.1 507.8,466.6 507.8,330.0 505.5,335.5" fill="#2a2a2a" stroke="#000000" stroke-width="0.3" stroke-linejoin="round"/>
  <polygon points="614.4,397.6 617.3,404.5 617.3,267.9 614.4,261.0" fill="#2a2a2a" stroke="#000000" stroke-width="0.3" stroke-linejoin="round"/>
  <polygon points="617.3,404.5 624.2,407.3 624.2,270.8 617.3,267.9" fill="#2a2a2a" stroke="#000000" stroke-width="0.3" stroke-linejoin="round"/>
  <polygon points="624.2,407.3 631.1,404.5 631.1,267.9 624.2,270.8" fill="#2a2a2a" stroke="#000000" stroke-width="0.3" stroke-linejoin="round"/>
  <polygon points="631.1,404.5 633.9,397.6 633.9,261.0 631.1,267.9" fill="#2a2a2a" stroke="#000000" stroke-width="0.3" stroke-linejoin="round"/>
  <polygon points="591.9,618.3 593.3,621.6 593.3,485.0 591.9,481.7" fill="#2a2a2a" stroke="#000000" stroke-width="0.3" stroke-linejoin="round"/>
  <polygon points="593.3,621.6 596.6,623.0 596.6,486.4 593.3,485.0" fill="#2a2a2a" stroke="#000000" stroke-width="0.3" stroke-linejoin="round"/>
  <polygon points="596.6,623.0 599.9,621.6 599.9,485.0 596.6,486.4" fill="#2a2a2a" stroke="#000000" stroke-width="0.3" stroke-linejoin="round"/>
  <polygon points="599.9,621.6 601.3,618.3 601.3,481.7 599.9,485.0" fill="#2a2a2a" stroke="#000000" stroke-width="0.3" stroke-linejoin="round"/>
  <polygon points="393.8,270.7 389.6,268.9 385.5,270.7 383.8,274.8 385.5,278.9 389.6,280.7 393.8,278.9 395.5,274.8" fill="#1a1a1a" stroke="#000000" stroke-width="0.3" stroke-linejoin="round"/>
  <polygon points="451.7,405.9 444.8,403.0 437.9,405.9 435.1,412.8 437.9,419.7 444.8,422.5 451.7,419.7 454.6,412.8" fill="#1a1a1a" stroke="#000000" stroke-width="0.3" stroke-linejoin="round"/>
  <polygon points="505.5,324.5 500.0,322.2 494.5,324.5 492.2,330.0 494.5,335.5 500.0,337.8 505.5,335.5 507.8,330.0" fill="#1a1a1a" stroke="#000000" stroke-width="0.3" stroke-linejoin="round"/>
  <polygon points="631.1,254.1 624.2,251.2 617.3,254.1 614.4,261.0 617.3,267.9 624.2,270.8 631.1,267.9 633.9,261.0" fill="#1a1a1a" stroke="#000000" stroke-width="0.3" stroke-linejoin="round"/>
  <polygon points="599.9,478.4 596.6,477.1 593.3,478.4 591.9,481.7 593.3,485.0 596.6,486.4 599.9,485.0 601.3,481.7" fill="#1a1a1a" stroke="#000000" stroke-width="0.3" stroke-linejoin="round"/>
<rect x="14" y="941" width="14" height="14" fill="#2a2a2a" stroke="#000000" stroke-width="1"/>
<text x="34" y="952" font-family="Helvetica, Arial, sans-serif" font-size="11" fill="#333">Walls (3.5m)</text>
<rect x="14" y="959" width="14" height="14" fill="#b0a898" stroke="#8a8070" stroke-width="1"/>
<text x="34" y="970" font-family="Helvetica, Arial, sans-serif" font-size="11" fill="#333">Platform (1m)</text>
<rect x="14" y="977" width="14" height="14" fill="#c8c0a8" stroke="#a09880" stroke-width="1"/>
<text x="34" y="988" font-family="Helvetica, Arial, sans-serif" font-size="11" fill="#333">Ground</text>
</svg>