<?xml version="1.0" encoding="UTF-8"?>
<svg xmlns="http://www.w3.org/2000/svg" width="900" height="1013" viewBox="0 0 900 1013" style="background:#e8e4d8">
<text x="12" y="22" font-family="Helvetica, Arial, sans-serif" font-size="13" fill="#333" font-weight="bold">Sonsbeek Pavilion (Rietveld 1955) — Military oblique</text>
  <polygon points="397.7,964.6 850.7,511.6 502.3,163.1 49.3,616.1" fill="#8a9e6a" stroke="#667750" stroke-width="0.5" stroke-linejoin="round"/>
  <polygon points="397.7,964.6 850.7,511.6 850.7,509.6 397.7,962.6" fill="#8a9e6a" stroke="#667750" stroke-width="0.5" stroke-linejoin="round"/>
  <polygon points="397.7,962.6 850.7,509.6 502.3,161.1 49.3,614.1" fill="#a8be84" stroke="#667750" stroke-width="0.5" stroke-linejoin="round"/>
  <polygon points="397.7,840.6 659.1,579.3 467.4,387.6 206.1,649.0" fill="#b0a898" stroke="#665e50" stroke-width="0.7" stroke-linejoin="round"/>
  <polygon points="397.7,840.6 659.1,579.3 659.1,571.9 397.7,833.2" fill="#b0a898" stroke="#665e50" stroke-width="0.7" stroke-linejoin="round"/>
  <polygon points="397.7,833.2 659.1,571.9 467.4,380.2 206.1,641.6" fill="#ccc5b8" stroke="#665e50" stroke-width="0.7" stroke-linejoin="round"/>
  <polygon points="397.7,910.3 401.2,906.8 397.7,903.4 394.2,906.8" fill="#4a8035" stroke="#2a5518" stroke-width="0.7" stroke-linejoin="round"/>
  <polygon points="145.1,657.7 148.6,654.2 145.1,650.7 141.6,654.2" fill="#4a8035" stroke="#2a5518" stroke-width="0.7" stroke-linejoin="round"/>
  <polygon points="746.2,544.4 749.7,541.0 746.2,537.5 742.7,541.0" fill="#4a8035" stroke="#2a5518" stroke-width="0.7" stroke-linejoin="round"/>
  <polygon points="502.3,300.5 505.8,297.0 502.3,293.6 498.8,297.0" fill="#4a8035" stroke="#2a5518" stroke-width="0.7" stroke-linejoin="round"/>
  <polygon points="580.7,762.2 584.2,758.7 580.7,755.3 577.2,758.7" fill="#4a8035" stroke="#2a5518" stroke-width="0.7" stroke-linejoin="round"/>
  <polygon points="432.6,892.9 589.4,736.1 575.4,722.2 418.6,879.0" fill="#4a8035" stroke="#2a5518" stroke-width="0.7" stroke-linejoin="round"/>
  <polygon points="432.6,892.9 589.4,736.1 589.4,711.5 432.6,868.3" fill="#4a8035" stroke="#2a5518" stroke-width="0.7" stroke-linejoin="round"/>
  <polygon points="432.6,868.3 589.4,711.5 575.4,697.5 418.6,854.3" fill="#6aaa50" stroke="#2a5518" stroke-width="0.7" stroke-linejoin="round"/>
  <polygon points="746.2,544.4 749.7,541.0 749.7,454.7 746.2,458.2" fill="#4a8035" stroke="#2a5518" stroke-width="0.7" stroke-linejoin="round"/>
  <polygon points="397.7,910.3 401.2,906.8 401.2,808.3 397.7,811.8" fill="#4a8035" stroke="#2a5518" stroke-width="0.7" stroke-linejoin="round"/>
  <polygon points="580.7,762.2 584.2,758.7 584.2,660.2 580.7,663.7" fill="#4a8035" stroke="#2a5518" stroke-width="0.7" stroke-linejoin="round"/>
  <polygon points="145.1,657.7 148.6,654.2 148.6,543.3 145.1,546.8" fill="#4a8035" stroke="#2a5518" stroke-width="0.7" stroke-linejoin="round"/>
  <polygon points="502.3,300.5 505.8,297.0 505.8,173.8 502.3,177.3" fill="#4a8035" stroke="#2a5518" stroke-width="0.7" stroke-linejoin="round"/>
  <polygon points="746.2,493.1 784.5,454.7 746.2,416.4 707.9,454.7" fill="#3a7028" stroke="#2a5518" stroke-width="0.7" stroke-linejoin="round"/>
  <polygon points="746.2,458.2 749.7,454.7 746.2,451.2 742.7,454.7" fill="#6aaa50" stroke="#2a5518" stroke-width="0.7" stroke-linejoin="round"/>
  <polygon points="397.7,846.6 436.1,808.3 397.7,769.9 359.4,808.3" fill="#3a7028" stroke="#2a5518" stroke-width="0.7" stroke-linejoin="round"/>
  <polygon points="580.7,698.5 619.0,660.2 580.7,621.9 542.3,660.2" fill="#3a7028" stroke="#2a5518" stroke-width="0.7" stroke-linejoin="round"/>
  <polygon points="397.7,811.8 401.2,808.3 397.7,804.8 394.2,808.3" fill="#6aaa50" stroke="#2a5518" stroke-width="0.7" stroke-linejoin="round"/>
  <polygon points="580.7,663.7 584.2,660.2 580.7,656.7 577.2,660.2" fill="#6aaa50" stroke="#2a5518" stroke-width="0.7" stroke-linejoin="round"/>
  <polygon points="145.1,581.7 183.4,543.3 145.1,505.0 106.8,543.3" fill="#3a7028" stroke="#2a5518" stroke-width="0.7" stroke-linejoin="round"/>
  <polygon points="145.1,546.8 148.6,543.3 145.1,539.8 141.6,543.3" fill="#6aaa50" stroke="#2a5518" stroke-width="0.7" stroke-linejoin="round"/>
  <polygon points="502.3,212.2 540.6,173.8 502.3,135.5 463.9,173.8" fill="#3a7028" stroke="#2a5518" stroke-width="0.7" stroke-linejoin="round"/>
  <polygon points="502.3,177.3 505.8,173.8 502.3,170.4 498.8,173.8" fill="#6aaa50" stroke="#2a5518" stroke-width="0.7" stroke-linejoin="round"/>
  <polygon points="746.2,493.1 784.5,454.7 784.5,380.8 746.2,419.1" fill="#3a7028" stroke="#2a5518" stroke-width="0.7" stroke-linejoin="round"/>
  <polygon points="397.7,846.6 436.1,808.3 436.1,734.4 397.7,772.7" fill="#3a7028" stroke="#2a5518" stroke-width="0.7" stroke-linejoin="round"/>
  <polygon points="580.7,698.5 619.0,660.2 619.0,586.3 580.7,624.6" fill="#3a7028" stroke="#2a5518" stroke-width="0.7" stroke-linejoin="round"/>
  <polygon points="145.1,581.7 183.4,543.3 183.4,457.1 145.1,495.4" fill="#3a7028" stroke="#2a5518" stroke-width="0.7" stroke-linejoin="round"/>
  <polygon points="746.2,419.1 784.5,380.8 746.2,342.5 707.9,380.8" fill="#5a9a40" stroke="#2a5518" stroke-width="0.7" stroke-linejoin="round"/>
  <polygon points="502.3,212.2 540.6,173.8 540.6,87.6 502.3,125.9" fill="#3a7028" stroke="#2a5518" stroke-width="0.7" stroke-linejoin="round"/>
  <polygon points="397.7,772.7 436.1,734.4 397.7,696.0 359.4,734.4" fill="#5a9a40" stroke="#2a5518" stroke-width="0.7" stroke-linejoin="round"/>
  <polygon points="580.7,624.6 619.0,586.3 580.7,547.9 542.3,586.3" fill="#5a9a40" stroke="#2a5518" stroke-width="0.7" stroke-linejoin="round"/>
  <polygon points="145.1,495.4 183.4,457.1 145.1,418.8 106.8,457.1" fill="#5a9a40" stroke="#2a5518" stroke-width="0.7" stroke-linejoin="round"/>
  <polygon points="502.3,125.9 540.6,87.6 502.3,49.3 463.9,87.6" fill="#5a9a40" stroke="#2a5518" stroke-width="0.7" stroke-linejoin="round"/>
  <polygon points="397.7,815.8 467.4,746.1 463.1,741.8 393.4,811.5" fill="#c8c0b0" stroke="#222222" stroke-width="0.7" stroke-linejoin="round"/>
  <polygon points="488.3,725.2 589.4,624.2 585.0,619.8 484.0,720.9" fill="#c8c0b0" stroke="#222222" stroke-width="0.7" stroke-linejoin="round"/>
  <polygon points="249.6,632.9 310.6,571.9 306.3,567.5 245.3,628.5" fill="#c8c0b0" stroke="#222222" stroke-width="0.7" stroke-linejoin="round"/>
  <polygon points="333.3,549.2 385.5,497.0 381.2,492.6 328.9,544.9" fill="#c8c0b0" stroke="#222222" stroke-width="0.7" stroke-linejoin="round"/>
  <polygon points="406.4,476.1 467.4,415.1 463.1,410.7 402.1,471.7" fill="#c8c0b0" stroke="#222222" stroke-width="0.7" stroke-linejoin="round"/>
  <polygon points="380.3,676.4 432.6,624.2 428.2,619.8 376.0,672.1" fill="#c8c0b0" stroke="#222222" stroke-width="0.7" stroke-linejoin="round"/>
  <polygon points="455.2,601.5 498.8,558.0 494.4,553.6 450.9,597.2" fill="#c8c0b0" stroke="#222222" stroke-width="0.7" stroke-linejoin="round"/>
  <polygon points="397.7,815.8 402.1,811.5 306.3,715.6 301.9,720.0" fill="#c8c0b0" stroke="#222222" stroke-width="0.7" stroke-linejoin="round"/>
  <polygon points="589.4,554.5 593.7,550.1 541.5,497.9 537.1,502.2" fill="#c8c0b0" stroke="#222222" stroke-width="0.7" stroke-linejoin="round"/>
  <polygon points="511.0,476.1 515.3,471.7 454.4,410.7 450.0,415.1" fill="#c8c0b0" stroke="#222222" stroke-width="0.7" stroke-linejoin="round"/>
  <polygon points="484.8,676.4 489.2,672.1 445.6,628.5 441.3,632.9" fill="#c8c0b0" stroke="#222222" stroke-width="0.7" stroke-linejoin="round"/>
  <polygon points="450.0,554.5 454.4,550.1 393.4,489.1 389.0,493.5" fill="#c8c0b0" stroke="#222222" stroke-width="0.7" stroke-linejoin="round"/>
  <polygon points="484.8,676.4 489.2,672.1 489.2,610.5 484.8,614.8" fill="#c8c0b0" stroke="#222222" stroke-width="0.7" stroke-linejoin="round"/>
  <polygon points="380.3,676.4 432.6,624.2 432.6,555.2 380.3,607.4" fill="#c8c0b0" stroke="#222222" stroke-width="0.7" stroke-linejoin="round"/>
  <polygon points="455.2,601.5 498.8,558.0 498.8,489.0 455.2,532.5" fill="#c8c0b0" stroke="#222222" stroke-width="0.7" stroke-linejoin="round"/>
  <polygon points="397.7,815.8 467.4,746.1 467.4,672.2 397.7,741.9" fill="#c8c0b0" stroke="#222222" stroke-width="0.7" stroke-linejoin="round"/>
  <polygon points="488.3,725.2 589.4,624.2 589.4,550.2 488.3,651.3" fill="#c8c0b0" stroke="#222222" stroke-width="0.7" stroke-linejoin="round"/>
  <polygon points="589.4,554.5 593.7,550.1 593.7,476.2 589.4,480.6" fill="#c8c0b0" stroke="#222222" stroke-width="0.7" stroke-linejoin="round"/>
  <polygon points="511.0,476.1 515.3,471.7 515.3,397.8 511.0,402.2" fill="#c8c0b0" stroke="#222222" stroke-width="0.7" stroke-linejoin="round"/>
  <polygon points="476.1,580.6 477.5,579.2 477.5,505.3 476.1,506.7" fill="#c8c0b0" stroke="#222222" stroke-width="0.4" stroke-linejoin="round"/>
  <polygon points="389.0,493.5 390.4,492.1 390.4,418.2 389.0,419.6" fill="#c8c0b0" stroke="#222222" stroke-width="0.4" stroke-linejoin="round"/>
  <polygon points="554.5,502.2 555.9,500.8 555.9,426.9 554.5,428.3" fill="#c8c0b0" stroke="#222222" stroke-width="0.4" stroke-linejoin="round"/>
  <polygon points="467.4,415.1 468.8,413.7 468.8,339.8 467.4,341.2" fill="#c8c0b0" stroke="#222222" stroke-width="0.4" stroke-linejoin="round"/>
  <polygon points="397.7,815.8 402.1,811.5 402.1,732.6 397.7,737.0" fill="#c8c0b0" stroke="#222222" stroke-width="0.7" stroke-linejoin="round"/>
  <polygon points="450.0,554.5 454.4,550.1 454.4,471.3 450.0,475.6" fill="#c8c0b0" stroke="#222222" stroke-width="0.7" stroke-linejoin="round"/>
  <polygon points="401.2,784.5 402.6,783.1 402.6,704.2 401.2,705.6" fill="#c8c0b0" stroke="#222222" stroke-width="0.4" stroke-linejoin="round"/>
  <polygon points="267.1,650.3 268.5,648.9 268.5,570.1 267.1,571.5" fill="#c8c0b0" stroke="#222222" stroke-width="0.4" stroke-linejoin="round"/>
  <polygon points="479.6,706.1 481.0,704.7 481.0,625.8 479.6,627.2" fill="#c8c0b0" stroke="#222222" stroke-width="0.4" stroke-linejoin="round"/>
  <polygon points="345.5,571.9 346.9,570.5 346.9,491.7 345.5,493.1" fill="#c8c0b0" stroke="#222222" stroke-width="0.4" stroke-linejoin="round"/>
  <polygon points="566.7,618.9 568.1,617.5 568.1,538.7 566.7,540.1" fill="#c8c0b0" stroke="#222222" stroke-width="0.4" stroke-linejoin="round"/>
  <polygon points="432.6,484.8 434.0,483.4 434.0,404.5 432.6,405.9" fill="#c8c0b0" stroke="#222222" stroke-width="0.4" stroke-linejoin="round"/>
  <polygon points="249.6,632.9 310.6,571.9 310.6,485.7 249.6,546.6" fill="#c8c0b0" stroke="#222222" stroke-width="0.7" stroke-linejoin="round"/>
  <polygon points="333.3,549.2 385.5,497.0 385.5,410.7 333.3,463.0" fill="#c8c0b0" stroke="#222222" stroke-width="0.7" stroke-linejoin="round"/>
  <polygon points="406.4,476.1 467.4,415.1 467.4,328.9 406.4,389.8" fill="#c8c0b0" stroke="#222222" stroke-width="0.7" stroke-linejoin="round"/>
  <polygon points="484.8,614.8 489.2,610.5 445.6,566.9 441.3,571.3" fill="#e0dbd0" stroke="#222222" stroke-width="0.7" stroke-linejoin="round"/>
  <polygon points="380.3,607.4 432.6,555.2 428.2,550.8 376.0,603.1" fill="#e0dbd0" stroke="#222222" stroke-width="0.7" stroke-linejoin="round"/>
  <polygon points="455.2,532.5 498.8,489.0 494.4,484.6 450.9,528.2" fill="#e0dbd0" stroke="#222222" stroke-width="0.7" stroke-linejoin="round"/>
  <polygon points="467.4,532.8 572.0,428.3 458.7,315.0 354.2,419.6" fill="#bbb5a5" stroke="#222222" stroke-width="0.7" stroke-linejoin="round"/>
  <polygon points="397.7,741.9 467.4,672.2 463.1,667.9 393.4,737.5" fill="#e0dbd0" stroke="#222222" stroke-width="0.7" stroke-linejoin="round"/>
  <polygon points="488.3,651.3 589.4,550.2 585.0,545.9 484.0,646.9" fill="#e0dbd0" stroke="#222222" stroke-width="0.7" stroke-linejoin="round"/>
  <polygon points="589.4,480.6 593.7,476.2 541.5,423.9 537.1,428.3" fill="#e0dbd0" stroke="#222222" stroke-width="0.7" stroke-linejoin="round"/>
  <polygon points="511.0,402.2 515.3,397.8 454.4,336.8 450.0,341.2" fill="#e0dbd0" stroke="#222222" stroke-width="0.7" stroke-linejoin="round"/>
  <polygon points="467.4,532.8 572.0,428.3 572.0,425.8 467.4,530.4" fill="#bbb5a5" stroke="#222222" stroke-width="0.7" stroke-linejoin="round"/>
  <polygon points="467.4,530.4 572.0,425.8 458.7,312.6 354.2,417.1" fill="#ddd8cc" stroke="#222222" stroke-width="0.7" stroke-linejoin="round"/>
  <polygon points="409.9,731.7 601.6,540.1 418.6,357.2 227.0,548.8" fill="#bbb5a5" stroke="#222222" stroke-width="0.7" stroke-linejoin="round"/>
  <polygon points="397.7,737.0 402.1,732.6 306.3,636.8 301.9,641.1" fill="#e0dbd0" stroke="#222222" stroke-width="0.7" stroke-linejoin="round"/>
  <polygon points="450.0,475.6 454.4,471.3 393.4,410.3 389.0,414.7" fill="#e0dbd0" stroke="#222222" stroke-width="0.7" stroke-linejoin="round"/>
  <polygon points="409.9,731.7 601.6,540.1 601.6,537.1 409.9,728.8" fill="#bbb5a5" stroke="#222222" stroke-width="0.7" stroke-linejoin="round"/>
  <polygon points="409.9,728.8 601.6,537.1 418.6,354.2 227.0,545.8" fill="#ddd8cc" stroke="#222222" stroke-width="0.7" stroke-linejoin="round"/>
  <polygon points="249.6,546.6 310.6,485.7 306.3,481.3 245.3,542.3" fill="#e0dbd0" stroke="#222222" stroke-width="0.7" stroke-linejoin="round"/>
  <polygon points="333.3,463.0 385.5,410.7 381.2,406.4 328.9,458.7" fill="#e0dbd0" stroke="#222222" stroke-width="0.7" stroke-linejoin="round"/>
  <polygon points="406.4,389.8 467.4,328.9 463.1,324.5 402.1,385.5" fill="#e0dbd0" stroke="#222222" stroke-width="0.7" stroke-linejoin="round"/>
<rect x="12" y="933" width="14" height="14" fill="#e0dbd0" stroke="#222222" stroke-width="1"/>
<text x="32" y="944" font-family="Helvetica, Arial, sans-serif" font-size="11" fill="#333">Architecture</text>
<rect x="12" y="951" width="14" height="14" fill="#ccc5b8" stroke="#665e50" stroke-width="1"/>
<text x="32" y="962" font-family="Helvetica, Arial, sans-serif" font-size="11" fill="#333">Platform</text>
<rect x="12" y="969" width="14" height="14" fill="#a8be84" stroke="#667750" stroke-width="1"/>
<text x="32" y="980" font-family="Helvetica, Arial, sans-serif" font-size="11" fill="#333">Ground</text>
<rect x="12" y="987" width="14" height="14" fill="#6aaa50" stroke="#2a5518" stroke-width="1"/>
<text x="32" y="998" font-family="Helvetica, Arial, sans-serif" font-size="11" fill="#333">Foliage</text>
</svg>