<?xml version="1.0" encoding="UTF-8"?>
<svg xmlns="http://www.w3.org/2000/svg" width="800" height="743" viewBox="0 0 800 743" style="background:#f5f0e8">
<text x="10" y="25" font-family="Arial, sans-serif" font-size="14" fill="#333">Sonsbeek Pavilion (Rietveld 1955) — Cabinet 45, rotation 30, section cut Z=2.5m</text>
  <polygon points="245.7,666.2 703.9,401.7 505.5,58.0 47.2,322.6" fill="#c8b898" stroke="#8a7e6a" stroke-width="0.8" stroke-linejoin="round"/>
  <polygon points="467.3,652.7 538.9,611.4 489.3,525.5 417.7,566.8" fill="#c8b898" stroke="#8a7e6a" stroke-width="0.8" stroke-linejoin="round"/>
  <polygon points="245.7,666.2 703.9,401.7 704.5,401.1 246.2,665.7" fill="#c8b898" stroke="#8a7e6a" stroke-width="0.8" stroke-linejoin="round"/>
  <polygon points="467.3,652.7 538.9,611.4 539.3,611.0 467.7,652.4" fill="#c8b898" stroke="#8a7e6a" stroke-width="0.8" stroke-linejoin="round"/>
  <polygon points="246.2,665.7 704.5,401.1 506.1,57.4 47.8,322.0" fill="#d8ccb0" stroke="#8a7e6a" stroke-width="0.8" stroke-linejoin="round"/>
  <polygon points="467.7,652.4 539.3,611.0 489.7,525.1 418.1,566.5" fill="#d8ccb0" stroke="#8a7e6a" stroke-width="0.8" stroke-linejoin="round"/>
  <polygon points="258.3,620.5 544.7,455.1 539.8,446.5 253.4,611.9" fill="#d4cfc4" stroke="#333333" stroke-width="0.8" stroke-linejoin="round"/>
  <polygon points="183.3,358.3 527.0,159.9 522.1,151.3 178.4,349.7" fill="#d4cfc4" stroke="#333333" stroke-width="0.8" stroke-linejoin="round"/>
  <polygon points="306.8,439.8 507.2,324.0 502.3,315.5 301.8,431.2" fill="#d4cfc4" stroke="#333333" stroke-width="0.8" stroke-linejoin="round"/>
  <polygon points="258.3,620.5 266.9,615.5 184.3,472.3 175.7,477.3" fill="#d4cfc4" stroke="#333333" stroke-width="0.8" stroke-linejoin="round"/>
  <polygon points="552.4,336.1 561.0,331.2 461.8,159.3 453.2,164.3" fill="#d4cfc4" stroke="#333333" stroke-width="0.8" stroke-linejoin="round"/>
  <polygon points="397.1,464.0 405.7,459.0 356.1,373.1 347.5,378.1" fill="#d4cfc4" stroke="#333333" stroke-width="0.8" stroke-linejoin="round"/>
  <polygon points="404.8,345.0 413.4,340.0 347.2,225.5 338.6,230.4" fill="#d4cfc4" stroke="#333333" stroke-width="0.8" stroke-linejoin="round"/>
  <polygon points="284.8,567.0 287.1,565.7 285.7,563.4 283.4,564.8" fill="#d4cfc4" stroke="#333333" stroke-width="0.3" stroke-linejoin="round"/>
  <polygon points="185.6,395.2 187.9,393.9 186.5,391.6 184.2,392.9" fill="#d4cfc4" stroke="#333333" stroke-width="0.3" stroke-linejoin="round"/>
  <polygon points="385.0,509.2 387.3,507.8 386.0,505.6 383.7,506.9" fill="#d4cfc4" stroke="#333333" stroke-width="0.3" stroke-linejoin="round"/>
  <polygon points="285.8,337.3 288.1,336.0 286.8,333.7 284.5,335.0" fill="#d4cfc4" stroke="#333333" stroke-width="0.3" stroke-linejoin="round"/>
  <polygon points="528.2,426.5 530.5,425.2 529.2,422.9 526.9,424.2" fill="#d4cfc4" stroke="#333333" stroke-width="0.3" stroke-linejoin="round"/>
  <polygon points="429.0,254.7 431.3,253.3 430.0,251.0 427.7,252.4" fill="#d4cfc4" stroke="#333333" stroke-width="0.3" stroke-linejoin="round"/>
  <polygon points="421.3,373.6 423.6,372.3 422.3,370.0 420.0,371.4" fill="#d4cfc4" stroke="#333333" stroke-width="0.3" stroke-linejoin="round"/>
  <polygon points="355.2,259.1 357.5,257.8 356.2,255.5 353.9,256.8" fill="#d4cfc4" stroke="#333333" stroke-width="0.3" stroke-linejoin="round"/>
  <polygon points="535.9,307.5 538.2,306.2 536.9,303.9 534.6,305.2" fill="#d4cfc4" stroke="#333333" stroke-width="0.3" stroke-linejoin="round"/>
  <polygon points="469.7,192.9 472.0,191.6 470.7,189.3 468.4,190.7" fill="#d4cfc4" stroke="#333333" stroke-width="0.3" stroke-linejoin="round"/>
  <polygon points="299.1,558.8 385.0,509.2 376.7,494.9 290.8,544.5" fill="#d4cfc4" stroke="#333333" stroke-width="0.8" stroke-linejoin="round"/>
  <polygon points="234.1,710.8 238.7,708.2 236.1,703.6 231.5,706.3" fill="#6a9e55" stroke="#3d6b2e" stroke-width="0.8" stroke-linejoin="round"/>
  <polygon points="35.7,367.2 40.3,364.5 37.7,359.9 33.1,362.6" fill="#6a9e55" stroke="#3d6b2e" stroke-width="0.8" stroke-linejoin="round"/>
  <polygon points="733.1,384.6 737.7,381.9 735.1,377.3 730.5,380.0" fill="#6a9e55" stroke="#3d6b2e" stroke-width="0.8" stroke-linejoin="round"/>
  <polygon points="551.2,69.5 555.8,66.9 553.2,62.3 548.6,64.9" fill="#6a9e55" stroke="#3d6b2e" stroke-width="0.8" stroke-linejoin="round"/>
  <polygon points="508.4,590.7 513.0,588.0 510.4,583.4 505.8,586.1" fill="#6a9e55" stroke="#3d6b2e" stroke-width="0.8" stroke-linejoin="round"/>
  <polygon points="89.8,526.9 94.3,524.2 91.7,519.7 87.1,522.3" fill="#6a9e55" stroke="#3d6b2e" stroke-width="0.8" stroke-linejoin="round"/>
  <polygon points="262.8,694.3 491.9,562.0 482.0,544.8 252.9,677.1" fill="#6a9e55" stroke="#3d6b2e" stroke-width="0.8" stroke-linejoin="round"/>
  <polygon points="299.1,558.8 385.0,509.2 390.3,503.9 304.4,553.5" fill="#d4cfc4" stroke="#333333" stroke-width="0.8" stroke-linejoin="round"/>
  <polygon points="262.8,694.3 491.9,562.0 501.2,552.7 272.1,684.9" fill="#6a9e55" stroke="#3d6b2e" stroke-width="0.8" stroke-linejoin="round"/>
  <polygon points="304.4,553.5 390.3,503.9 382.0,489.6 296.1,539.2" fill="#e8e4da" stroke="#333333" stroke-width="0.8" stroke-linejoin="round"/>
  <polygon points="272.1,684.9 501.2,552.7 491.3,535.5 262.2,667.8" fill="#7db866" stroke="#3d6b2e" stroke-width="0.8" stroke-linejoin="round"/>
  <polygon points="397.1,464.0 405.7,459.0 431.4,433.3 422.8,438.3" fill="#d4cfc4" stroke="#333333" stroke-width="0.8" stroke-linejoin="round"/>
  <polygon points="258.3,620.5 544.7,455.1 574.0,425.9 287.6,591.3" fill="#d4cfc4" stroke="#333333" stroke-width="0.8" stroke-linejoin="round"/>
  <polygon points="183.3,358.3 527.0,159.9 556.3,130.6 212.6,329.1" fill="#d4cfc4" stroke="#333333" stroke-width="0.8" stroke-linejoin="round"/>
  <polygon points="306.8,439.8 507.2,324.0 536.5,294.8 336.0,410.6" fill="#d4cfc4" stroke="#333333" stroke-width="0.8" stroke-linejoin="round"/>
  <polygon points="258.3,620.5 266.9,615.5 296.2,586.3 287.6,591.3" fill="#d4cfc4" stroke="#333333" stroke-width="0.8" stroke-linejoin="round"/>
  <polygon points="552.4,336.1 561.0,331.2 590.2,302.0 581.6,306.9" fill="#d4cfc4" stroke="#333333" stroke-width="0.8" stroke-linejoin="round"/>
  <polygon points="404.8,345.0 413.4,340.0 442.6,310.8 434.0,315.8" fill="#d4cfc4" stroke="#333333" stroke-width="0.8" stroke-linejoin="round"/>
  <polygon points="284.8,567.0 287.1,565.7 316.3,536.5 314.0,537.8" fill="#d4cfc4" stroke="#333333" stroke-width="0.3" stroke-linejoin="round"/>
  <polygon points="185.6,395.2 187.9,393.9 217.1,364.7 214.8,366.0" fill="#d4cfc4" stroke="#333333" stroke-width="0.3" stroke-linejoin="round"/>
  <polygon points="385.0,509.2 387.3,507.8 416.5,478.6 414.2,479.9" fill="#d4cfc4" stroke="#333333" stroke-width="0.3" stroke-linejoin="round"/>
  <polygon points="285.8,337.3 288.1,336.0 317.3,306.8 315.0,308.1" fill="#d4cfc4" stroke="#333333" stroke-width="0.3" stroke-linejoin="round"/>
  <polygon points="528.2,426.5 530.5,425.2 559.7,395.9 557.4,397.3" fill="#d4cfc4" stroke="#333333" stroke-width="0.3" stroke-linejoin="round"/>
  <polygon points="429.0,254.7 431.3,253.3 460.5,224.1 458.2,225.4" fill="#d4cfc4" stroke="#333333" stroke-width="0.3" stroke-linejoin="round"/>
  <polygon points="421.3,373.6 423.6,372.3 452.8,343.1 450.6,344.4" fill="#d4cfc4" stroke="#333333" stroke-width="0.3" stroke-linejoin="round"/>
  <polygon points="355.2,259.1 357.5,257.8 386.7,228.5 384.4,229.9" fill="#d4cfc4" stroke="#333333" stroke-width="0.3" stroke-linejoin="round"/>
  <polygon points="535.9,307.5 538.2,306.2 567.4,277.0 565.1,278.3" fill="#d4cfc4" stroke="#333333" stroke-width="0.3" stroke-linejoin="round"/>
  <polygon points="469.7,192.9 472.0,191.6 501.3,162.4 499.0,163.7" fill="#d4cfc4" stroke="#333333" stroke-width="0.3" stroke-linejoin="round"/>
  <polygon points="234.1,710.8 238.7,708.2 268.0,679.0 263.4,681.6" fill="#6a9e55" stroke="#3d6b2e" stroke-width="0.8" stroke-linejoin="round"/>
  <polygon points="35.7,367.2 40.3,364.5 69.5,335.3 64.9,337.9" fill="#6a9e55" stroke="#3d6b2e" stroke-width="0.8" stroke-linejoin="round"/>
  <polygon points="733.1,384.6 737.7,381.9 766.9,352.7 762.3,355.3" fill="#6a9e55" stroke="#3d6b2e" stroke-width="0.8" stroke-linejoin="round"/>
  <polygon points="551.2,69.5 555.8,66.9 585.0,37.7 580.5,40.3" fill="#6a9e55" stroke="#3d6b2e" stroke-width="0.8" stroke-linejoin="round"/>
  <polygon points="508.4,590.7 513.0,588.0 542.2,558.8 537.7,561.4" fill="#6a9e55" stroke="#3d6b2e" stroke-width="0.8" stroke-linejoin="round"/>
  <polygon points="89.8,526.9 94.3,524.2 123.6,495.0 119.0,497.7" fill="#6a9e55" stroke="#3d6b2e" stroke-width="0.8" stroke-linejoin="round"/>
  <polygon points="422.8,438.3 431.4,433.3 381.8,347.4 373.2,352.4" fill="#e8e4da" stroke="#333333" stroke-width="0.8" stroke-linejoin="round"/>
  <polygon points="287.6,591.3 574.0,425.9 569.0,417.3 282.6,582.7" fill="#555555" stroke="#1a1a1a" stroke-width="0.8" stroke-linejoin="round"/>
  <polygon points="212.6,329.1 556.3,130.6 551.3,122.1 207.6,320.5" fill="#555555" stroke="#1a1a1a" stroke-width="0.8" stroke-linejoin="round"/>
  <polygon points="336.0,410.6 536.5,294.8 531.5,286.2 331.0,402.0" fill="#e8e4da" stroke="#333333" stroke-width="0.8" stroke-linejoin="round"/>
  <polygon points="287.6,591.3 296.2,586.3 213.5,443.1 204.9,448.1" fill="#555555" stroke="#1a1a1a" stroke-width="0.8" stroke-linejoin="round"/>
  <polygon points="581.6,306.9 590.2,302.0 491.0,130.1 482.4,135.1" fill="#555555" stroke="#1a1a1a" stroke-width="0.8" stroke-linejoin="round"/>
  <polygon points="434.0,315.8 442.6,310.8 376.5,196.3 367.9,201.2" fill="#555555" stroke="#1a1a1a" stroke-width="0.8" stroke-linejoin="round"/>
  <polygon points="314.0,537.8 316.3,536.5 315.0,534.2 312.7,535.5" fill="#555555" stroke="#1a1a1a" stroke-width="0.3" stroke-linejoin="round"/>
  <polygon points="214.8,366.0 217.1,364.7 215.8,362.4 213.5,363.7" fill="#555555" stroke="#1a1a1a" stroke-width="0.3" stroke-linejoin="round"/>
  <polygon points="414.2,479.9 416.5,478.6 415.2,476.3 412.9,477.7" fill="#555555" stroke="#1a1a1a" stroke-width="0.3" stroke-linejoin="round"/>
  <polygon points="315.0,308.1 317.3,306.8 316.0,304.5 313.7,305.8" fill="#555555" stroke="#1a1a1a" stroke-width="0.3" stroke-linejoin="round"/>
  <polygon points="557.4,397.3 559.7,395.9 558.4,393.7 556.1,395.0" fill="#555555" stroke="#1a1a1a" stroke-width="0.3" stroke-linejoin="round"/>
  <polygon points="458.2,225.4 460.5,224.1 459.2,221.8 456.9,223.1" fill="#555555" stroke="#1a1a1a" stroke-width="0.3" stroke-linejoin="round"/>
  <polygon points="450.6,344.4 452.8,343.1 451.5,340.8 449.2,342.1" fill="#555555" stroke="#1a1a1a" stroke-width="0.3" stroke-linejoin="round"/>
  <polygon points="384.4,229.9 386.7,228.5 385.4,226.2 383.1,227.6" fill="#555555" stroke="#1a1a1a" stroke-width="0.3" stroke-linejoin="round"/>
  <polygon points="565.1,278.3 567.4,277.0 566.1,274.7 563.8,276.0" fill="#555555" stroke="#1a1a1a" stroke-width="0.3" stroke-linejoin="round"/>
  <polygon points="499.0,163.7 501.3,162.4 499.9,160.1 497.6,161.4" fill="#555555" stroke="#1a1a1a" stroke-width="0.3" stroke-linejoin="round"/>
  <polygon points="263.4,681.6 268.0,679.0 265.3,674.4 260.7,677.0" fill="#2d5420" stroke="#1a1a1a" stroke-width="0.8" stroke-linejoin="round"/>
  <polygon points="64.9,337.9 69.5,335.3 66.9,330.7 62.3,333.3" fill="#2d5420" stroke="#1a1a1a" stroke-width="0.8" stroke-linejoin="round"/>
  <polygon points="762.3,355.3 766.9,352.7 764.3,348.1 759.7,350.8" fill="#2d5420" stroke="#1a1a1a" stroke-width="0.8" stroke-linejoin="round"/>
  <polygon points="580.5,40.3 585.0,37.7 582.4,33.1 577.8,35.7" fill="#2d5420" stroke="#1a1a1a" stroke-width="0.8" stroke-linejoin="round"/>
  <polygon points="537.7,561.4 542.2,558.8 539.6,554.2 535.0,556.8" fill="#2d5420" stroke="#1a1a1a" stroke-width="0.8" stroke-linejoin="round"/>
  <polygon points="119.0,497.7 123.6,495.0 120.9,490.4 116.3,493.1" fill="#2d5420" stroke="#1a1a1a" stroke-width="0.8" stroke-linejoin="round"/>
<rect x="10" y="683" width="16" height="16" fill="#d4cfc4" stroke="#333333" stroke-width="1"/>
<text x="32" y="696" font-family="Arial, sans-serif" font-size="12" fill="#333">Architecture</text>
<rect x="10" y="705" width="16" height="16" fill="#c8b898" stroke="#8a7e6a" stroke-width="1"/>
<text x="32" y="718" font-family="Arial, sans-serif" font-size="12" fill="#333">Ground</text>
<rect x="10" y="727" width="16" height="16" fill="#6a9e55" stroke="#3d6b2e" stroke-width="1"/>
<text x="32" y="740" font-family="Arial, sans-serif" font-size="12" fill="#333">Foliage</text>
</svg>